<svg width="31" height="30" viewBox="0 0 31 30" fill="none" xmlns="http://www.w3.org/2000/svg">
<path d="M15.6 0C7.31626 0 0.600006 6.82141 0.600006 15.2349C0.600006 22.3737 5.44001 28.347 11.965 30C11.895 29.7943 11.85 29.5557 11.85 29.2598V26.6559C11.2413 26.6559 10.2213 26.6559 9.96501 26.6559C8.93876 26.6559 8.02626 26.2078 7.58376 25.3749C7.09251 24.4494 7.00751 23.0339 5.79001 22.168C5.42876 21.8798 5.70376 21.551 6.12001 21.5954C6.88876 21.8163 7.52626 22.3521 8.12626 23.1469C8.72375 23.9429 9.005 24.1231 10.1213 24.1231C10.6625 24.1231 11.4725 24.0914 12.235 23.9695C12.645 22.912 13.3538 21.9382 14.22 21.4786C9.22501 20.9568 6.84126 18.4329 6.84126 15.0063C6.84126 13.5311 7.46001 12.1041 8.51126 10.9018C8.16626 9.70842 7.73251 7.27465 8.64376 6.34786C10.8913 6.34786 12.25 7.82819 12.5763 8.2281C13.6963 7.83834 14.9263 7.61744 16.2188 7.61744C17.5138 7.61744 18.7488 7.83834 19.8713 8.23064C20.1938 7.83326 21.5538 6.34786 23.8063 6.34786C24.7213 7.27592 24.2825 9.71985 23.9338 10.9107C24.9788 12.1105 25.5938 13.5336 25.5938 15.0063C25.5938 18.4304 23.2138 20.953 18.2263 21.4774C19.5988 22.2048 20.6 24.2488 20.6 25.7888V29.2598C20.6 29.3919 20.5713 29.4871 20.5563 29.6001C26.4013 27.5193 30.6 21.8824 30.6 15.2349C30.6 6.82141 23.8838 0 15.6 0Z" fill="white"/>
</svg>
