<svg width="28" height="28" viewBox="0 0 28 28" fill="none" xmlns="http://www.w3.org/2000/svg">
<path d="M13.8 0C6.1908 0 0 6.1902 0 13.8C0 21.4098 6.1908 27.6 13.8 27.6C21.4092 27.6 27.6 21.4098 27.6 13.8C27.6 6.1902 21.4092 0 13.8 0ZM9.6 19.8H7.2V10.8H9.6V19.8ZM8.4 9C7.737 9 7.2 8.463 7.2 7.8C7.2 7.137 7.737 6.6 8.4 6.6C9.063 6.6 9.6 7.137 9.6 7.8C9.6 8.463 9.063 9 8.4 9ZM21 19.8H18.6V16.8V15.3C18.6 14.145 17.655 13.2 16.5 13.2C15.345 13.2 14.4 14.145 14.4 15.3V19.8H12V10.8H14.4V11.8896C15.1008 11.2164 16.0512 10.8 17.1 10.8C19.254 10.8 21 12.546 21 14.7V19.8Z" fill="white"/>
</svg>
