<svg width="31" height="30" viewBox="0 0 31 30" fill="none" xmlns="http://www.w3.org/2000/svg">
<path fill-rule="evenodd" clip-rule="evenodd" d="M15.6 30C23.8843 30 30.6 23.2843 30.6 15C30.6 6.71573 23.8843 0 15.6 0C7.31573 0 0.600006 6.71573 0.600006 15C0.600006 23.2843 7.31573 30 15.6 30ZM20.6762 6.77539C20.9938 6.64983 21.3099 6.60441 21.6007 6.63525C21.8916 6.6661 22.1559 6.77327 22.3681 6.95483C22.6157 7.16746 23.0011 7.66631 22.7868 8.62793C22.7868 8.62618 20.3985 20.6154 20.3258 20.989C20.192 21.6706 19.5501 22.375 18.704 22.375C18.0259 22.375 17.5211 21.8842 17.4257 21.7871L14.9494 19.4971L12.9106 21.2214C12.7741 21.3264 12.495 21.5068 12.1073 21.5068C11.9735 21.5068 11.842 21.4848 11.716 21.4419C11.1017 21.2625 10.8586 20.4954 10.7624 20.1909C10.604 19.6885 9.98422 17.8292 9.69761 16.9693L9.67886 16.9131L6.4711 15.6279C5.5471 15.2622 5.35342 14.6415 5.35342 14.1838C5.35342 13.5302 5.72497 13.045 6.46085 12.7466L8.36124 11.9468C14.1126 9.52565 20.2824 6.93027 20.6762 6.77539ZM20.8858 9.2052C20.9431 8.91786 20.9892 8.6866 21.0214 8.52539C19.5493 9.13762 13.212 11.8058 9.39821 13.4115L9.04141 13.5618L7.56485 14.1821L10.6068 15.3972C12.7036 14.2045 16.9636 11.7775 17.964 11.1538C17.9737 11.1478 17.9844 11.1409 17.996 11.1335C18.0787 11.0806 18.2047 11 18.3007 11C18.4223 11 18.475 11.0737 18.475 11.176C18.475 11.253 18.4274 11.3306 18.1999 11.552C17.9172 11.8285 13.225 16.5781 13.225 16.5781L12.5448 19.239L15.0006 17.1592L18.6203 20.5071C18.8667 19.3328 20.3554 11.8656 20.8858 9.2052Z" fill="white"/>
</svg>
